<?xml version="1.0" encoding="utf-8"?>
<!-- Generator: Adobe Illustrator 26.0.0, SVG Export Plug-In . SVG Version: 6.00 Build 0)  -->
<svg version="1.1" id="Layer_1" xmlns="http://www.w3.org/2000/svg" xmlns:xlink="http://www.w3.org/1999/xlink" x="0px" y="0px"
	 viewBox="0 0 2292 1506" style="enable-background:new 0 0 2292 1506;" xml:space="preserve">
<style type="text/css">
	.st0{fill:#18181B;}
	.st1{fill:#6366F1;}
</style>
<g>
	<g>
		<g>
			<path class="st0" d="M1168.3,635.9c-8.3-8.6-18-15.1-29.3-19.7c-11.3-4.6-23.7-6.9-37.4-6.9h-23.3h-22.4h-16.1v204.2h17h21.6
				h22.4c13.9,0,26.6-2.3,38-6.9c11.4-4.6,21.2-11.1,29.5-19.6c8.3-8.5,14.6-18.7,19.1-30.6c4.4-11.9,6.7-25.2,6.7-39.8v-10.2
				c0-14.7-2.2-28-6.7-39.8C1182.9,654.6,1176.5,644.4,1168.3,635.9z M1155,716.6c0,13.9-2.1,25.9-6.2,35.8
				c-4.1,10-10.2,17.6-18.2,22.9c-8,5.3-18,7.9-29.9,7.9h-22.4V639.7h23.3c8.6,0,16.2,1.5,22.9,4.3c6.6,2.9,12.2,7.2,16.8,12.8
				c4.5,5.6,8,12.5,10.3,20.8c2.3,8.2,3.5,17.7,3.5,28.5V716.6z"/>
			<path class="st0" d="M1364.8,617.8c-11.3-5.7-24.8-8.5-40.7-8.5h-78.5v204.2h38.6V739h40c15.9,0,29.5-2.6,40.7-7.7
				c11.3-5.1,19.9-12.5,25.8-22c5.9-9.5,8.9-20.9,8.9-34.1c0-12.7-3-24.1-8.9-34C1384.7,631.2,1376,623.4,1364.8,617.8z
				 M1356.9,692.7c-2.5,5-6.5,8.9-11.9,11.8c-5.4,2.9-12.4,4.3-21,4.3h-40v-69h40c8.6,0,15.6,1.7,21,5c5.4,3.4,9.3,7.8,11.9,13.2
				c2.5,5.4,3.8,11.3,3.8,17.5C1360.6,681.9,1359.4,687.7,1356.9,692.7z"/>
			<polygon class="st0" points="1643.7,609.3 1627.7,609.3 1610.2,609.3 1554.5,763 1498.7,609.3 1481.1,609.3 1465.3,609.3 
				1448.5,609.3 1448.5,813.5 1487,813.5 1487,750.5 1483.1,657.4 1541,813.5 1567.8,813.5 1625.7,657.6 1622,750.5 1622,813.5 
				1660.5,813.5 1660.5,609.3 			"/>
		</g>
		<g>
			<path class="st1" d="M1047.4,839.6v44.5h-7.7v-44.5H1047.4z M1052.6,884.1h-9.5l0.1-6.1h9.4c2.7,0,5.1-0.6,6.9-1.8
				c1.9-1.2,3.3-2.9,4.2-5.2c0.9-2.2,1.4-4.9,1.4-8v-2.4c0-2.4-0.3-4.5-0.8-6.4c-0.5-1.9-1.3-3.4-2.4-4.7c-1-1.3-2.3-2.2-3.8-2.9
				s-3.3-1-5.2-1h-10v-6.1h10c3,0,5.6,0.5,8.1,1.5c2.4,1,4.6,2.4,6.3,4.3c1.8,1.9,3.1,4.1,4.1,6.7c1,2.6,1.4,5.5,1.4,8.7v2.4
				c0,3.2-0.5,6.1-1.4,8.7c-1,2.6-2.3,4.8-4.1,6.6c-1.8,1.8-3.9,3.3-6.4,4.2C1058.5,883.6,1055.7,884.1,1052.6,884.1z"/>
			<path class="st1" d="M1099.5,864l0.1,4.5h-5.3c-1.4,0-2.6,0.1-3.6,0.4c-1,0.3-1.9,0.6-2.6,1.1c-0.7,0.5-1.2,1.1-1.6,1.8
				c-0.3,0.7-0.5,1.5-0.5,2.4c0,0.9,0.2,1.7,0.6,2.4c0.4,0.7,1,1.3,1.8,1.7c0.8,0.4,1.7,0.6,2.9,0.6c1.5,0,2.8-0.3,4-0.9
				c1.1-0.6,2-1.4,2.7-2.3c0.7-0.9,1-1.8,1-2.6l2.4,3.3c-0.2,0.8-0.7,1.7-1.3,2.7c-0.6,1-1.4,1.9-2.3,2.7c-0.9,0.9-2.1,1.6-3.4,2.1
				c-1.3,0.5-2.8,0.8-4.5,0.8c-2.2,0-4.1-0.4-5.8-1.3c-1.7-0.9-3-2-4-3.5c-1-1.5-1.4-3.1-1.4-5c0-1.7,0.3-3.3,1-4.7
				c0.7-1.4,1.6-2.5,2.9-3.4c1.3-0.9,2.9-1.6,4.7-2.1c1.9-0.5,4-0.7,6.4-0.7H1099.5z M1098.4,877.4v-15.8c0-1.2-0.2-2.2-0.6-3.1
				c-0.4-0.9-1.1-1.5-1.9-2c-0.9-0.5-1.9-0.7-3.3-0.7c-1.2,0-2.2,0.2-3.1,0.6c-0.9,0.4-1.6,1-2,1.6c-0.5,0.7-0.7,1.5-0.7,2.4h-7.3
				c0-1.3,0.3-2.6,0.9-3.8c0.6-1.2,1.5-2.3,2.7-3.3c1.2-1,2.6-1.7,4.3-2.3c1.7-0.5,3.5-0.8,5.6-0.8c2.5,0,4.7,0.4,6.6,1.3
				c1.9,0.8,3.4,2.1,4.5,3.8c1.1,1.7,1.7,3.8,1.7,6.3v14.7c0,1.5,0.1,2.9,0.3,4c0.2,1.2,0.5,2.2,0.9,3.1v0.5h-7.5
				c-0.3-0.8-0.6-1.8-0.8-3C1098.5,879.8,1098.4,878.6,1098.4,877.4z"/>
			<path class="st1" d="M1120.8,858.1v26h-7.4v-33h6.9L1120.8,858.1z M1119.5,866.3l-2.4,0c0-2.3,0.4-4.5,1-6.4c0.6-2,1.5-3.6,2.7-5
				s2.5-2.5,4.1-3.3c1.6-0.8,3.4-1.1,5.4-1.1c1.6,0,3,0.2,4.3,0.7c1.3,0.4,2.4,1.1,3.3,2.1c0.9,1,1.6,2.2,2.1,3.8
				c0.5,1.6,0.7,3.5,0.7,5.7v21.3h-7.4v-21.4c0-1.6-0.2-2.8-0.7-3.8c-0.5-0.9-1.1-1.6-2-2c-0.9-0.4-1.9-0.6-3.2-0.6
				c-1.3,0-2.4,0.3-3.4,0.8c-1,0.5-1.8,1.3-2.5,2.2c-0.7,0.9-1.2,2-1.6,3.2C1119.7,863.7,1119.5,864.9,1119.5,866.3z"/>
			<path class="st1" d="M1161.8,878.8c1.2,0,2.3-0.2,3.3-0.7c1-0.5,1.7-1.1,2.3-2c0.6-0.9,0.9-1.8,1-3h6.9c0,2.1-0.7,4.1-1.9,5.8
				c-1.2,1.8-2.8,3.1-4.9,4.2c-2,1-4.2,1.5-6.7,1.5c-2.5,0-4.7-0.4-6.6-1.3c-1.9-0.9-3.4-2.1-4.7-3.6c-1.2-1.5-2.2-3.3-2.8-5.3
				c-0.6-2-0.9-4.1-0.9-6.4V867c0-2.3,0.3-4.4,0.9-6.4c0.6-2,1.6-3.8,2.8-5.3c1.2-1.5,2.8-2.7,4.7-3.6c1.9-0.9,4.1-1.3,6.6-1.3
				c2.6,0,5,0.5,7,1.6c2,1,3.6,2.5,4.7,4.4c1.2,1.9,1.7,4,1.8,6.5h-6.9c-0.1-1.2-0.4-2.3-0.9-3.3c-0.5-1-1.3-1.8-2.3-2.4
				c-1-0.6-2.1-0.9-3.5-0.9c-1.5,0-2.7,0.3-3.7,0.9c-1,0.6-1.7,1.4-2.3,2.4c-0.5,1-0.9,2.2-1.2,3.4c-0.2,1.3-0.4,2.6-0.4,4v1.1
				c0,1.4,0.1,2.7,0.3,4c0.2,1.3,0.6,2.4,1.2,3.4c0.6,1,1.3,1.8,2.3,2.4C1159.1,878.5,1160.3,878.8,1161.8,878.8z"/>
			<path class="st1" d="M1195.5,884.7c-2.4,0-4.6-0.4-6.6-1.2c-2-0.8-3.6-1.9-5-3.4c-1.4-1.4-2.4-3.1-3.2-5.1
				c-0.7-2-1.1-4.1-1.1-6.3v-1.2c0-2.6,0.4-4.9,1.1-7c0.8-2.1,1.8-3.9,3.1-5.4c1.3-1.5,2.9-2.6,4.8-3.4c1.8-0.8,3.8-1.2,6-1.2
				c2.4,0,4.4,0.4,6.2,1.2c1.8,0.8,3.2,1.9,4.4,3.3c1.2,1.4,2,3.1,2.6,5.1c0.6,2,0.9,4.2,0.9,6.5v3.1h-25.5v-5.3h18.3v-0.6
				c0-1.3-0.3-2.6-0.8-3.7c-0.5-1.2-1.2-2.1-2.2-2.8c-1-0.7-2.3-1.1-3.9-1.1c-1.2,0-2.3,0.3-3.3,0.8c-0.9,0.5-1.7,1.3-2.4,2.2
				s-1.1,2.2-1.4,3.5c-0.3,1.4-0.5,2.9-0.5,4.6v1.2c0,1.4,0.2,2.8,0.6,4c0.4,1.2,1,2.3,1.8,3.2c0.8,0.9,1.7,1.6,2.8,2.2
				c1.1,0.5,2.4,0.8,3.8,0.8c1.8,0,3.3-0.4,4.7-1.1s2.6-1.7,3.6-3l3.9,3.8c-0.7,1-1.6,2-2.8,3c-1.1,0.9-2.5,1.7-4.2,2.3
				C1199.6,884.4,1197.7,884.7,1195.5,884.7z"/>
			<path class="st1" d="M1247.6,867.5H1236v-6.1h11.6c2,0,3.6-0.3,4.9-1c1.2-0.7,2.2-1.6,2.7-2.7c0.6-1.1,0.9-2.5,0.9-4
				c0-1.4-0.3-2.7-0.9-4c-0.6-1.2-1.5-2.2-2.7-3c-1.2-0.8-2.9-1.1-4.9-1.1h-9.2v38.3h-7.7v-44.5h16.9c3.4,0,6.4,0.6,8.8,1.8
				c2.4,1.2,4.2,2.9,5.5,5c1.3,2.1,1.9,4.6,1.9,7.3c0,2.9-0.6,5.3-1.9,7.4c-1.3,2.1-3.1,3.6-5.5,4.7
				C1254,866.9,1251.1,867.5,1247.6,867.5z"/>
			<path class="st1" d="M1289.3,864l0.1,4.5h-5.3c-1.4,0-2.6,0.1-3.6,0.4c-1,0.3-1.9,0.6-2.6,1.1c-0.7,0.5-1.2,1.1-1.6,1.8
				c-0.3,0.7-0.5,1.5-0.5,2.4c0,0.9,0.2,1.7,0.6,2.4c0.4,0.7,1,1.3,1.8,1.7c0.8,0.4,1.7,0.6,2.9,0.6c1.5,0,2.8-0.3,4-0.9
				c1.1-0.6,2-1.4,2.7-2.3c0.7-0.9,1-1.8,1-2.6l2.4,3.3c-0.2,0.8-0.7,1.7-1.3,2.7c-0.6,1-1.4,1.9-2.3,2.7c-0.9,0.9-2.1,1.6-3.4,2.1
				c-1.3,0.5-2.8,0.8-4.5,0.8c-2.2,0-4.1-0.4-5.8-1.3c-1.7-0.9-3-2-4-3.5c-1-1.5-1.4-3.1-1.4-5c0-1.7,0.3-3.3,1-4.7
				c0.7-1.4,1.6-2.5,2.9-3.4c1.3-0.9,2.9-1.6,4.7-2.1c1.9-0.5,4-0.7,6.4-0.7H1289.3z M1288.2,877.4v-15.8c0-1.2-0.2-2.2-0.6-3.1
				c-0.4-0.9-1.1-1.5-1.9-2c-0.9-0.5-1.9-0.7-3.3-0.7c-1.2,0-2.2,0.2-3.1,0.6c-0.9,0.4-1.6,1-2,1.6c-0.5,0.7-0.7,1.5-0.7,2.4h-7.3
				c0-1.3,0.3-2.6,0.9-3.8c0.6-1.2,1.5-2.3,2.7-3.3c1.2-1,2.6-1.7,4.3-2.3c1.7-0.5,3.5-0.8,5.6-0.8c2.5,0,4.7,0.4,6.6,1.3
				c1.9,0.8,3.4,2.1,4.5,3.8c1.1,1.7,1.7,3.8,1.7,6.3v14.7c0,1.5,0.1,2.9,0.3,4c0.2,1.2,0.5,2.2,0.9,3.1v0.5h-7.5
				c-0.3-0.8-0.6-1.8-0.8-3C1288.3,879.8,1288.2,878.6,1288.2,877.4z"/>
			<path class="st1" d="M1318.4,851v5.4h-18.6V851H1318.4z M1305.2,842.9h7.4v32c0,1,0.1,1.8,0.4,2.3c0.3,0.5,0.7,0.9,1.2,1.1
				c0.5,0.2,1.1,0.3,1.9,0.3c0.5,0,1,0,1.5-0.1c0.5-0.1,0.8-0.1,1.1-0.2l0,5.6c-0.6,0.2-1.3,0.3-2.1,0.5c-0.8,0.1-1.7,0.2-2.8,0.2
				c-1.7,0-3.2-0.3-4.5-0.9c-1.3-0.6-2.3-1.6-3.1-2.9c-0.7-1.4-1.1-3.2-1.1-5.4V842.9z"/>
			<path class="st1" d="M1339.2,851v5.4h-18.6V851H1339.2z M1326,842.9h7.4v32c0,1,0.1,1.8,0.4,2.3c0.3,0.5,0.7,0.9,1.2,1.1
				c0.5,0.2,1.1,0.3,1.9,0.3c0.5,0,1,0,1.5-0.1c0.5-0.1,0.8-0.1,1.1-0.2l0,5.6c-0.6,0.2-1.3,0.3-2.1,0.5c-0.8,0.1-1.7,0.2-2.8,0.2
				c-1.7,0-3.2-0.3-4.5-0.9c-1.3-0.6-2.3-1.6-3.1-2.9c-0.7-1.4-1.1-3.2-1.1-5.4V842.9z"/>
			<path class="st1" d="M1359.5,884.7c-2.4,0-4.6-0.4-6.6-1.2c-2-0.8-3.6-1.9-5-3.4c-1.4-1.4-2.4-3.1-3.2-5.1
				c-0.7-2-1.1-4.1-1.1-6.3v-1.2c0-2.6,0.4-4.9,1.1-7c0.8-2.1,1.8-3.9,3.1-5.4c1.3-1.5,2.9-2.6,4.8-3.4c1.8-0.8,3.8-1.2,6-1.2
				c2.4,0,4.4,0.4,6.2,1.2c1.8,0.8,3.2,1.9,4.4,3.3c1.2,1.4,2,3.1,2.6,5.1c0.6,2,0.9,4.2,0.9,6.5v3.1h-25.5v-5.3h18.3v-0.6
				c0-1.3-0.3-2.6-0.8-3.7c-0.5-1.2-1.2-2.1-2.2-2.8c-1-0.7-2.3-1.1-3.9-1.1c-1.2,0-2.3,0.3-3.3,0.8c-0.9,0.5-1.7,1.3-2.4,2.2
				c-0.6,1-1.1,2.2-1.4,3.5c-0.3,1.4-0.5,2.9-0.5,4.6v1.2c0,1.4,0.2,2.8,0.6,4c0.4,1.2,1,2.3,1.8,3.2c0.8,0.9,1.7,1.6,2.8,2.2
				c1.1,0.5,2.4,0.8,3.8,0.8c1.8,0,3.3-0.4,4.7-1.1c1.4-0.7,2.6-1.7,3.6-3l3.9,3.8c-0.7,1-1.6,2-2.8,3c-1.1,0.9-2.5,1.7-4.2,2.3
				C1363.5,884.4,1361.6,884.7,1359.5,884.7z"/>
			<path class="st1" d="M1385.8,857.3v26.7h-7.4v-33h7L1385.8,857.3z M1395.9,850.8l-0.1,6.8c-0.4-0.1-0.9-0.1-1.5-0.2
				c-0.5,0-1-0.1-1.5-0.1c-1.3,0-2.4,0.2-3.3,0.5c-1,0.4-1.8,0.9-2.4,1.5c-0.6,0.7-1.1,1.5-1.5,2.4c-0.3,0.9-0.5,2-0.6,3.1l-1.7,0.1
				c0-2.1,0.2-4,0.6-5.8c0.4-1.8,1-3.3,1.8-4.7c0.8-1.3,1.9-2.4,3.1-3.1c1.3-0.8,2.7-1.1,4.4-1.1c0.4,0,0.9,0,1.4,0.1
				C1395.3,850.6,1395.6,850.7,1395.9,850.8z"/>
			<path class="st1" d="M1407.8,858.1v26h-7.4v-33h6.9L1407.8,858.1z M1406.5,866.3l-2.4,0c0-2.3,0.4-4.5,1-6.4c0.6-2,1.5-3.6,2.7-5
				s2.5-2.5,4.1-3.3c1.6-0.8,3.4-1.1,5.4-1.1c1.6,0,3,0.2,4.3,0.7c1.3,0.4,2.4,1.1,3.3,2.1c0.9,1,1.6,2.2,2.1,3.8s0.7,3.5,0.7,5.7
				v21.3h-7.4v-21.4c0-1.6-0.2-2.8-0.7-3.8c-0.5-0.9-1.1-1.6-2-2c-0.9-0.4-1.9-0.6-3.2-0.6c-1.3,0-2.4,0.3-3.4,0.8
				c-1,0.5-1.8,1.3-2.5,2.2c-0.7,0.9-1.2,2-1.6,3.2C1406.7,863.7,1406.5,864.9,1406.5,866.3z"/>
			<path class="st1" d="M1451.6,839.6h6.5l1.1,29.7v14.8h-7.6V839.6z M1454.7,839.6h6.8l12.9,34.3l12.8-34.3h6.8l-17,44.5h-5.4
				L1454.7,839.6z M1490.7,839.6h6.5v44.5h-7.7v-14.8L1490.7,839.6z"/>
			<path class="st1" d="M1525.2,864l0.1,4.5h-5.3c-1.4,0-2.6,0.1-3.6,0.4c-1,0.3-1.9,0.6-2.6,1.1c-0.7,0.5-1.2,1.1-1.6,1.8
				c-0.3,0.7-0.5,1.5-0.5,2.4c0,0.9,0.2,1.7,0.6,2.4c0.4,0.7,1,1.3,1.8,1.7c0.8,0.4,1.7,0.6,2.9,0.6c1.5,0,2.8-0.3,4-0.9
				c1.1-0.6,2-1.4,2.7-2.3c0.7-0.9,1-1.8,1-2.6l2.4,3.3c-0.2,0.8-0.7,1.7-1.3,2.7c-0.6,1-1.4,1.9-2.3,2.7c-0.9,0.9-2.1,1.6-3.4,2.1
				c-1.3,0.5-2.8,0.8-4.5,0.8c-2.2,0-4.1-0.4-5.8-1.3c-1.7-0.9-3-2-4-3.5c-1-1.5-1.4-3.1-1.4-5c0-1.7,0.3-3.3,1-4.7
				c0.7-1.4,1.6-2.5,2.9-3.4c1.3-0.9,2.9-1.6,4.7-2.1c1.9-0.5,4-0.7,6.4-0.7H1525.2z M1524.2,877.4v-15.8c0-1.2-0.2-2.2-0.6-3.1
				c-0.4-0.9-1.1-1.5-1.9-2c-0.9-0.5-1.9-0.7-3.3-0.7c-1.2,0-2.2,0.2-3.1,0.6c-0.9,0.4-1.6,1-2,1.6s-0.7,1.5-0.7,2.4h-7.3
				c0-1.3,0.3-2.6,0.9-3.8c0.6-1.2,1.5-2.3,2.7-3.3c1.2-1,2.6-1.7,4.3-2.3c1.7-0.5,3.5-0.8,5.6-0.8c2.5,0,4.7,0.4,6.6,1.3
				c1.9,0.8,3.4,2.1,4.5,3.8c1.1,1.7,1.7,3.8,1.7,6.3v14.7c0,1.5,0.1,2.9,0.3,4c0.2,1.2,0.5,2.2,0.9,3.1v0.5h-7.5
				c-0.3-0.8-0.6-1.8-0.8-3C1524.3,879.8,1524.2,878.6,1524.2,877.4z"/>
			<path class="st1" d="M1546.6,857.4v39.4h-7.4V851h6.8L1546.6,857.4z M1568.2,867.2v0.6c0,2.4-0.3,4.6-0.8,6.7
				c-0.6,2-1.4,3.8-2.5,5.3c-1.1,1.5-2.4,2.7-4,3.5c-1.6,0.8-3.4,1.3-5.5,1.3c-2.1,0-3.9-0.4-5.4-1.1c-1.5-0.8-2.8-1.8-3.9-3.3
				c-1.1-1.4-1.9-3.1-2.5-5c-0.6-1.9-1.1-4-1.4-6.3v-2.5c0.3-2.4,0.7-4.6,1.4-6.6c0.6-2,1.5-3.7,2.5-5.1c1.1-1.4,2.4-2.5,3.9-3.3
				c1.5-0.8,3.3-1.2,5.3-1.2c2.1,0,3.9,0.4,5.5,1.2c1.6,0.8,3,1.9,4.1,3.4c1.1,1.5,1.9,3.2,2.5,5.3S1568.2,864.7,1568.2,867.2z
				 M1560.8,867.9v-0.6c0-1.5-0.1-2.9-0.4-4.3c-0.3-1.3-0.7-2.5-1.3-3.5c-0.6-1-1.4-1.8-2.3-2.3c-0.9-0.6-2.1-0.8-3.4-0.8
				c-1.3,0-2.4,0.2-3.4,0.7c-0.9,0.4-1.7,1-2.4,1.8c-0.6,0.8-1.1,1.7-1.5,2.7c-0.3,1-0.6,2.1-0.7,3.3v5.9c0.2,1.5,0.7,2.8,1.3,4
				c0.6,1.2,1.4,2.2,2.5,2.9c1.1,0.7,2.5,1.1,4.2,1.1c1.3,0,2.5-0.3,3.4-0.9c0.9-0.6,1.7-1.4,2.3-2.4c0.6-1,1-2.2,1.3-3.5
				C1560.7,870.8,1560.8,869.4,1560.8,867.9z"/>
			<path class="st1" d="M1581.8,857.4v39.4h-7.4V851h6.8L1581.8,857.4z M1603.3,867.2v0.6c0,2.4-0.3,4.6-0.8,6.7
				c-0.6,2-1.4,3.8-2.5,5.3c-1.1,1.5-2.4,2.7-4,3.5c-1.6,0.8-3.4,1.3-5.5,1.3c-2.1,0-3.9-0.4-5.4-1.1c-1.5-0.8-2.8-1.8-3.9-3.3
				c-1.1-1.4-1.9-3.1-2.5-5c-0.6-1.9-1.1-4-1.4-6.3v-2.5c0.3-2.4,0.7-4.6,1.4-6.6c0.6-2,1.5-3.7,2.5-5.1c1.1-1.4,2.4-2.5,3.9-3.3
				c1.5-0.8,3.3-1.2,5.3-1.2c2.1,0,3.9,0.4,5.5,1.2c1.6,0.8,3,1.9,4.1,3.4c1.1,1.5,1.9,3.2,2.5,5.3
				C1603,862.4,1603.3,864.7,1603.3,867.2z M1595.9,867.9v-0.6c0-1.5-0.1-2.9-0.4-4.3s-0.7-2.5-1.3-3.5c-0.6-1-1.4-1.8-2.3-2.3
				c-0.9-0.6-2.1-0.8-3.4-0.8c-1.3,0-2.4,0.2-3.4,0.7c-0.9,0.4-1.7,1-2.4,1.8c-0.6,0.8-1.1,1.7-1.5,2.7c-0.3,1-0.6,2.1-0.7,3.3v5.9
				c0.2,1.5,0.7,2.8,1.3,4c0.6,1.2,1.4,2.2,2.5,2.9c1.1,0.7,2.5,1.1,4.2,1.1c1.3,0,2.5-0.3,3.4-0.9c0.9-0.6,1.7-1.4,2.3-2.4
				c0.6-1,1-2.2,1.3-3.5S1595.9,869.4,1595.9,867.9z"/>
			<path class="st1" d="M1624.1,884.7c-2.4,0-4.6-0.4-6.6-1.2s-3.6-1.9-5-3.4c-1.4-1.4-2.4-3.1-3.2-5.1c-0.7-2-1.1-4.1-1.1-6.3v-1.2
				c0-2.6,0.4-4.9,1.1-7c0.8-2.1,1.8-3.9,3.1-5.4c1.3-1.5,2.9-2.6,4.8-3.4c1.8-0.8,3.8-1.2,6-1.2c2.4,0,4.4,0.4,6.2,1.2
				c1.8,0.8,3.2,1.9,4.4,3.3c1.2,1.4,2,3.1,2.6,5.1c0.6,2,0.9,4.2,0.9,6.5v3.1h-25.5v-5.3h18.3v-0.6c0-1.3-0.3-2.6-0.8-3.7
				c-0.5-1.2-1.2-2.1-2.2-2.8c-1-0.7-2.3-1.1-3.9-1.1c-1.2,0-2.3,0.3-3.3,0.8c-0.9,0.5-1.7,1.3-2.4,2.2s-1.1,2.2-1.4,3.5
				c-0.3,1.4-0.5,2.9-0.5,4.6v1.2c0,1.4,0.2,2.8,0.6,4c0.4,1.2,1,2.3,1.8,3.2c0.8,0.9,1.7,1.6,2.8,2.2c1.1,0.5,2.4,0.8,3.8,0.8
				c1.8,0,3.3-0.4,4.7-1.1s2.6-1.7,3.6-3l3.9,3.8c-0.7,1-1.6,2-2.8,3c-1.1,0.9-2.5,1.7-4.2,2.3
				C1628.2,884.4,1626.3,884.7,1624.1,884.7z"/>
			<path class="st1" d="M1650.4,857.3v26.7h-7.4v-33h7L1650.4,857.3z M1660.5,850.8l-0.1,6.8c-0.4-0.1-0.9-0.1-1.5-0.2
				c-0.5,0-1-0.1-1.5-0.1c-1.3,0-2.4,0.2-3.3,0.5c-1,0.4-1.8,0.9-2.4,1.5s-1.1,1.5-1.5,2.4c-0.3,0.9-0.6,2-0.6,3.1l-1.7,0.1
				c0-2.1,0.2-4,0.6-5.8c0.4-1.8,1-3.3,1.8-4.7c0.8-1.3,1.9-2.4,3.1-3.1c1.3-0.8,2.7-1.1,4.4-1.1c0.4,0,0.9,0,1.4,0.1
				C1659.9,850.6,1660.3,850.7,1660.5,850.8z"/>
		</g>
	</g>
	<g>
		
			<ellipse transform="matrix(0.4323 -0.9017 0.9017 0.4323 -97.9673 979.9207)" class="st1" cx="729.3" cy="567.8" rx="36.3" ry="29.7"/>
		<path class="st1" d="M865.4,636.7c0,0-5.1-11.2,15.7-27.4c0.5-0.4,1-0.8,1.4-1.2c14.4-12.7,18.2-32.3,8.2-44.7
			c-10.3-12.8-31.3-12.9-46.9-0.4c-15.6,12.6-19.9,33.1-9.6,45.9C834.2,609,847.4,625.1,865.4,636.7z"/>
		<path class="st1" d="M869.2,811.8c-35.2-11.9-11-45.2-10-46.8c0,0,0,0,0,0c11.8-13.5,22.9-32.1,20.4-52.6c0,0-4.7,13.3-47.7,40.2
			c-1,0.6-2,1-3,1.2c-3.6,0.7-7.5-0.6-9.7-3.8c-2.9-4.2-2-9.9,2.1-12.9c14.5-10.7,44.7-36.6,43.3-66.8c-1.9-39.4-68.3-70.4-114.2-61
			c2.6,0.7,5.2,1.6,7.7,2.5c-1-0.3-1.9-0.6-2.7-0.8c0.8,0.3,1.8,0.5,2.7,0.9c0,0,0.1,0,0.1,0c0.4,0.1,0.7,0.2,1.1,0.4
			c1.1,0.4,2.2,0.8,3.2,1.2c0.3,0.1,0.7,0.3,1,0.4c0.6,0.3,1.2,0.5,1.8,0.8c0.4,0.2,0.9,0.4,1.3,0.6c9,4,17.1,9.2,23.9,15.5
			c16.1,14.8,24.4,34.2,23.8,56.3c-1.2,43.4-47.3,94.9-84.3,136.3c-10,11.2-20.1,21.4-26.6,30.6c-44,62.4-40.4,113.2-39.8,116.6
			c24-77.5,126.7-159.2,128.4-160.6c0,0,0,0,0,0c29.8,69.7,208.8-3.8,212.6-5.4C1001.8,804.9,899.5,822.1,869.2,811.8z"/>
		<path class="st1" d="M687.4,845c32.5-40.4,106.5-109,107.8-158.4c0.8-27.5-15.1-46.8-37.1-57.5c-13.6-6.6-28.8-9.1-43.8-7.9
			c-19.8,1.6-47.6,8.5-51,34.9c-4.5,35.6,30.8,62.9,31.7,63.5c-0.6-1-15.1-35.3-9.6-55.3c5.5-20.4,33.5-18.3,33.5-18.3l0,0
			c5.7,0.8,11,2.6,15.5,5.6c40.9,27.5,14.7,89.7-59.7,169.3c-74.4,79.5-30.2,152.8-30.2,152.8C638,953.2,655,885.3,687.4,845z"/>
	</g>
</g>
</svg>
